<svg height="104" viewBox="0 0 136 104" width="136" xmlns="http://www.w3.org/2000/svg"><g fill="none" fill-rule="evenodd"><path d="m8.26227388 34.4901268c-4.60790953-5.4087509-7.72663909-12.0372497-7.20549755-19.4646729 1.50155389-21.40047447 31.29175427-16.69264276 37.08656507-5.89152098 5.7948107 10.80112178 5.1062366 38.19906288-2.38304 40.12952468-2.9867132.7698654-9.3493002-1.1159967-15.8249294-5.0191516l4.064628 28.755694h-24z" fill="#b28b67" transform="translate(54 31)"/><path d="m81.5586899 41.7004095c-3.2568703 1.821812-5.5746806 5.2355503-8.3647624 9.7133606-.679537-.2670901-1.4196028-.4137701-2.1939275-.4137701-3.3137085 0-6 2.6862915-6 6 0 1.6822183.6922919 3.2027431 1.807515 4.292214-1.3883186 1.9596022-2.9442256 4.0066691-4.7271287 6.1189762-6.6533482-3.9917382-11.6019469-15.6257853-5.249276-26.8569422 5.4657851-22.4968215 36.4372431-8.5332894 42.3958942-12.3274705 1.3024475 8.1637079-2.8985574 14.7462816-17.6683146 13.473632z" fill="#191847"/></g></svg>